<?xml version="1.0" standalone="no"?>
<!DOCTYPE svg PUBLIC "-//W3C//DTD SVG 20010904//EN"
 "http://www.w3.org/TR/2001/REC-SVG-20010904/DTD/svg10.dtd">
<svg version="1.0" xmlns="http://www.w3.org/2000/svg"
 width="1125.000000pt" height="284.000000pt" viewBox="0 0 1125.000000 284.000000"
 preserveAspectRatio="xMidYMid meet">

<g transform="translate(0.000000,284.000000) scale(0.100000,-0.100000)"
fill="#000000" stroke="none">
<path d="M8325 2793 c-89 -20 -146 -62 -166 -121 -15 -47 -15 -157 0 -204 7
-21 27 -50 46 -66 57 -50 91 -57 300 -57 209 0 243 7 300 57 43 37 59 84 59
173 0 79 -26 147 -68 177 -48 35 -132 48 -296 47 -85 -1 -164 -3 -175 -6z"/>
<path d="M60 1785 l0 -945 145 0 144 0 18 33 c35 65 17 200 -67 497 -92 324
-139 547 -159 760 -13 140 -24 397 -17 389 4 -3 138 -390 299 -858 161 -469
297 -853 302 -854 6 -1 135 363 287 808 152 446 279 815 282 820 2 6 5 -351 5
-792 l1 -803 333 0 334 0 6 527 c4 289 7 715 7 945 l0 418 -341 -2 -341 -3
-142 -407 c-77 -224 -143 -404 -146 -402 -3 3 -66 186 -140 407 l-135 402
-337 3 -338 2 0 -945z"/>
<path d="M3637 2724 c-4 -4 -7 -430 -7 -946 l0 -938 320 0 320 0 0 318 0 319
57 -19 c76 -26 218 -34 323 -19 277 41 470 193 547 429 24 76 29 294 8 388
-40 185 -139 315 -296 393 -148 73 -158 74 -744 78 -286 2 -524 1 -528 -3z
m748 -83 c77 -35 130 -123 162 -273 28 -129 25 -441 -5 -563 -43 -172 -113
-259 -220 -272 l-52 -6 0 567 0 566 38 0 c20 0 55 -9 77 -19z"/>
<path d="M9535 2626 c-143 -145 -351 -279 -545 -352 -83 -32 -85 -33 -88 -68
l-3 -36 50 0 50 0 4 -497 c4 -534 5 -552 59 -657 64 -126 173 -194 339 -211
108 -11 253 31 309 90 l20 22 -26 48 c-52 91 -54 118 -54 683 l0 522 50 0 50
0 0 40 0 40 -50 0 -50 0 0 240 c0 132 -3 239 -7 239 -5 -1 -53 -47 -108 -103z"/>
<path d="M5937 2278 c-318 -24 -548 -216 -633 -528 -25 -91 -25 -310 0 -400
56 -209 203 -381 398 -469 118 -53 227 -74 383 -74 217 0 343 42 457 151 79
75 113 146 113 234 0 52 -5 73 -21 94 -29 40 -40 40 -59 0 -24 -51 -96 -113
-171 -148 -60 -28 -72 -30 -148 -26 -134 7 -229 66 -286 179 l-22 42 24 -7
c189 -55 328 -40 463 50 176 116 244 333 174 559 -37 120 -128 220 -253 279
-121 57 -251 77 -419 64z m160 -106 c39 -25 58 -141 44 -272 -20 -185 -80
-352 -160 -441 -62 -70 -66 -58 -65 194 1 224 11 306 53 418 33 87 85 128 128
101z"/>
<path d="M7742 2261 c-106 -36 -209 -129 -264 -235 -12 -23 -32 -72 -44 -111
l-22 -70 -1 203 -1 202 -337 -2 -338 -3 -3 -702 -2 -703 340 0 340 0 0 420 c0
462 1 475 59 504 146 76 320 -112 347 -377 4 -37 11 -67 15 -67 5 0 15 24 24
53 8 28 64 223 124 432 l109 380 -34 31 c-66 63 -204 82 -312 45z"/>
<path d="M10325 2266 c-210 -49 -370 -169 -461 -348 -97 -192 -111 -460 -33
-672 128 -350 506 -522 899 -409 323 93 508 382 487 762 -19 332 -205 575
-502 657 -82 22 -311 28 -390 10z m230 -86 c19 -34 20 -52 23 -589 3 -605 -1
-672 -43 -708 -33 -29 -64 -19 -88 28 -16 32 -17 78 -15 644 3 570 4 613 21
639 27 40 74 34 102 -14z"/>
<path d="M2040 2241 c0 -5 169 -322 376 -705 l376 -696 -19 -23 c-10 -13 -44
-55 -76 -93 -32 -38 -75 -102 -95 -142 -32 -66 -36 -82 -36 -155 0 -67 4 -92
25 -137 32 -69 106 -142 176 -175 107 -51 89 -64 260 182 l151 218 -56 23
c-124 49 -246 170 -272 269 -9 35 -8 48 6 75 9 18 171 326 360 683 188 358
346 658 350 668 6 16 -11 17 -276 17 -179 0 -289 -4 -301 -11 -61 -32 -40
-123 62 -265 119 -166 140 -224 119 -316 -14 -56 -55 -148 -68 -148 -4 0 -95
166 -202 368 l-195 367 -333 3 c-197 1 -332 -1 -332 -7z"/>
<path d="M8167 2243 c-4 -3 -7 -321 -7 -705 l0 -698 340 0 340 0 0 705 0 705
-333 0 c-184 0 -337 -3 -340 -7z"/>
</g>
</svg>
