<?xml version="1.0" standalone="no"?>
<!DOCTYPE svg PUBLIC "-//W3C//DTD SVG 20010904//EN"
 "http://www.w3.org/TR/2001/REC-SVG-20010904/DTD/svg10.dtd">
<svg version="1.0" xmlns="http://www.w3.org/2000/svg"
 width="675.000000pt" height="675.000000pt" viewBox="0 0 675.000000 675.000000"
 preserveAspectRatio="xMidYMid meet">

<g transform="translate(0.000000,675.000000) scale(0.100000,-0.100000)"
fill="#000000" stroke="none">
<path d="M4730 6644 c-234 -34 -350 -69 -560 -172 -174 -85 -364 -217 -540
-377 -80 -72 -160 -155 -160 -164 0 -3 56 -64 125 -135 l125 -129 22 19 c13
10 60 54 106 96 171 160 322 266 504 356 140 69 257 106 408 129 246 36 501
-47 646 -211 48 -55 123 -197 148 -284 8 -30 21 -111 27 -181 26 -287 -49
-614 -208 -911 -45 -83 -205 -322 -247 -368 l-21 -23 45 -37 c25 -20 88 -76
141 -124 53 -49 101 -88 105 -88 10 0 104 125 192 256 78 117 200 352 246 474
89 241 126 422 133 655 12 398 -91 696 -322 931 -132 134 -336 240 -541 279
-72 14 -302 19 -374 9z"/>
<path d="M1650 6606 c-264 -48 -506 -196 -658 -401 -43 -57 -126 -214 -118
-222 2 -2 23 1 47 7 24 6 125 14 224 17 l180 5 50 48 c197 187 478 238 800
145 65 -19 259 -104 314 -137 245 -148 387 -268 808 -682 l302 -297 127 120
c70 67 131 121 135 121 28 0 -14 47 -219 251 -448 444 -594 573 -817 723 -125
84 -351 206 -381 206 -8 0 -28 7 -43 15 -28 14 -132 45 -246 72 -86 20 -409
26 -505 9z"/>
<path d="M5215 5900 c-440 -75 -863 -291 -1271 -648 -124 -107 -474 -452 -474
-466 0 -10 136 -148 227 -230 l32 -29 220 215 c235 230 365 340 556 469 274
185 623 318 883 336 96 7 92 0 63 133 -22 99 -57 198 -79 223 -18 20 -26 20
-157 -3z"/>
<path d="M1065 5894 c-70 -7 -254 -45 -308 -63 -277 -96 -516 -303 -623 -538
-66 -143 -86 -231 -91 -400 -8 -235 16 -378 102 -608 87 -234 272 -508 500
-742 l110 -113 134 131 134 131 -51 52 c-56 57 -113 121 -188 211 -196 236
-302 458 -349 729 -27 158 -15 280 44 433 66 169 251 315 476 373 56 15 126
23 235 27 133 5 171 2 265 -16 169 -33 256 -58 403 -117 177 -71 286 -129 454
-240 l138 -92 126 134 126 134 -23 20 c-59 49 -294 203 -394 258 -208 114
-445 207 -645 253 -131 30 -455 54 -575 43z"/>
<path d="M6050 5838 c0 -7 7 -45 15 -83 8 -39 18 -133 21 -210 l7 -140 54 -60
c60 -66 133 -206 155 -295 22 -90 16 -317 -11 -423 -58 -232 -143 -395 -331
-637 -106 -137 -236 -271 -582 -604 l-227 -218 127 -134 c70 -74 132 -134 137
-134 15 0 589 564 708 695 388 430 578 842 579 1260 2 425 -187 757 -537 942
-104 55 -115 59 -115 41z"/>
<path d="M2885 5336 c-77 -78 -238 -243 -359 -367 -242 -248 -539 -536 -658
-636 -67 -57 -76 -68 -65 -83 7 -9 65 -72 129 -140 l117 -122 53 49 c29 27
127 119 218 204 203 190 380 365 713 711 l258 267 -127 130 c-70 72 -129 131
-133 131 -3 -1 -69 -65 -146 -144z"/>
<path d="M1033 5385 c-87 -16 -166 -41 -215 -68 -47 -26 -48 -39 -12 -215 81
-398 256 -738 583 -1128 92 -110 508 -527 521 -522 19 6 260 240 260 251 0 7
-73 84 -162 172 -167 166 -351 361 -404 430 -17 22 -67 94 -112 160 -186 279
-304 585 -330 855 -8 88 -8 88 -129 65z"/>
<path d="M3034 4785 c-66 -69 -121 -130 -123 -136 -4 -14 512 -526 964 -954
98 -93 195 -187 214 -207 19 -21 39 -38 45 -38 6 0 71 60 144 133 l134 134
-34 27 c-54 46 -154 141 -811 776 -219 212 -402 386 -407 388 -4 2 -61 -54
-126 -123z"/>
<path d="M4192 4818 c-54 -51 -113 -110 -131 -130 l-33 -38 52 -60 c104 -120
1187 -1120 1213 -1120 12 0 268 241 265 250 -4 10 -156 151 -331 307 -183 164
-558 515 -764 716 l-172 168 -99 -93z"/>
<path d="M2865 4202 c-83 -81 -256 -247 -385 -369 -129 -122 -341 -325 -470
-451 l-235 -229 20 -23 c11 -13 73 -72 138 -131 l118 -108 47 48 c26 26 180
175 342 332 681 656 840 811 840 820 0 7 -247 253 -258 256 -4 2 -75 -64 -157
-145z"/>
<path d="M4530 3667 c-160 -158 -316 -307 -873 -841 l-198 -190 132 -132 132
-133 53 47 c113 101 849 810 1023 985 l184 186 -33 28 c-54 45 -234 206 -240
214 -3 4 -84 -70 -180 -164z"/>
<path d="M1268 3759 c-227 -194 -661 -635 -808 -819 -141 -177 -287 -443 -345
-628 -102 -330 -98 -609 14 -879 94 -229 311 -441 533 -519 44 -15 43 -20 23
91 -8 44 -14 136 -15 206 l0 125 -54 55 c-81 85 -132 178 -162 300 -23 92 -26
117 -21 219 8 163 57 342 138 502 49 98 169 274 259 378 134 157 559 575 763
751 l27 24 -132 133 c-72 72 -133 132 -135 132 -1 0 -40 -32 -85 -71z"/>
<path d="M5867 3168 l-129 -131 79 -81 c151 -154 240 -268 332 -425 68 -116
98 -184 139 -316 47 -153 55 -210 50 -347 -4 -105 -9 -135 -35 -203 -77 -206
-205 -326 -433 -406 -197 -70 -547 -46 -850 56 -217 73 -380 154 -577 285
l-132 88 -118 -130 c-65 -71 -119 -134 -121 -139 -9 -24 322 -240 503 -329
229 -112 385 -164 665 -221 149 -30 422 -37 562 -14 287 47 482 145 658 332
77 83 99 114 144 208 93 190 118 293 118 488 0 255 -40 432 -152 682 -48 108
-166 291 -273 425 -88 110 -275 310 -290 310 -7 0 -70 -60 -140 -132z"/>
<path d="M4717 3161 c-70 -69 -127 -131 -127 -137 0 -7 54 -62 120 -124 212
-198 458 -478 572 -650 167 -254 290 -585 314 -845 l7 -77 66 7 c82 8 200 39
265 68 l49 22 -6 75 c-8 102 -75 363 -126 488 -51 127 -138 301 -201 402 -52
85 -205 291 -276 373 -62 70 -517 527 -524 526 -3 -1 -62 -59 -133 -128z"/>
<path d="M1332 3145 c-73 -71 -133 -133 -132 -136 0 -6 264 -250 605 -559 246
-223 596 -553 626 -592 l26 -32 119 106 c65 58 130 118 144 133 l25 27 -130
125 c-191 183 -494 464 -710 658 -105 93 -230 208 -280 255 -49 46 -106 98
-125 115 l-35 30 -133 -130z"/>
<path d="M2475 3149 l-130 -129 45 -42 c356 -329 510 -478 865 -835 182 -183
335 -333 340 -332 11 1 247 250 252 266 4 11 -442 456 -837 835 -353 339 -384
367 -395 367 -5 0 -68 -58 -140 -130z"/>
<path d="M4645 2693 c-407 -379 -677 -650 -1078 -1082 l-97 -104 39 -46 c22
-25 80 -86 129 -135 l89 -88 165 168 c90 93 265 274 388 402 202 211 485 487
629 615 l54 48 -29 32 c-53 59 -229 237 -234 237 -3 0 -27 -21 -55 -47z"/>
<path d="M1288 2613 c-285 -390 -411 -679 -485 -1114 -24 -141 -24 -383 0
-503 63 -314 194 -533 420 -700 47 -35 220 -117 304 -144 176 -58 462 -68 663
-23 337 74 678 271 998 576 l107 102 -124 129 c-68 71 -128 131 -133 132 -5 2
-57 -40 -116 -95 -212 -194 -353 -297 -514 -372 -197 -92 -352 -131 -517 -131
-126 0 -226 25 -358 91 -83 41 -114 63 -165 118 -111 117 -177 275 -197 468
-37 355 141 881 417 1233 l51 65 -27 28 c-36 39 -248 227 -255 227 -3 0 -34
-39 -69 -87z"/>
<path d="M2878 2063 c-431 -415 -643 -571 -960 -707 -208 -90 -324 -123 -555
-156 l-83 -12 6 -42 c10 -71 53 -224 74 -266 12 -23 28 -44 37 -47 44 -17 409
65 550 123 254 105 406 190 629 350 203 146 341 263 545 464 l173 171 -130
130 c-71 71 -132 129 -136 129 -4 0 -71 -62 -150 -137z"/>
<path d="M3027 1524 l-135 -128 163 -175 c518 -558 916 -871 1270 -1000 297
-108 510 -134 757 -92 350 60 616 248 783 554 21 37 35 70 33 72 -2 2 -28 -3
-58 -11 -37 -11 -112 -17 -229 -20 l-173 -3 -57 -55 c-63 -59 -139 -101 -258
-143 -72 -25 -90 -27 -238 -28 -168 0 -173 1 -370 62 -126 40 -316 143 -455
247 -186 139 -376 313 -651 595 l-247 253 -135 -128z"/>
</g>
</svg>
